<svg xmlns="http://www.w3.org/2000/svg" width="201.667" height="220" viewBox="0 0 201.667 220"><defs><style>.a{fill:#fff;}</style></defs><path class="a" d="M203.827,220.72a29.912,29.912,0,0,1-12.4-2.736,29.708,29.708,0,0,0-25.552,0,29.622,29.622,0,0,1-24.869,0,29.728,29.728,0,0,0-25.561,0,29.6,29.6,0,0,1-24.86,0,29.769,29.769,0,0,0-25.58,0,29.591,29.591,0,0,1-24.855,0,29.739,29.739,0,0,0-25.566,0A29.943,29.943,0,0,1,2.16,220.72v-18.8a29.943,29.943,0,0,0,12.425-2.736,30.216,30.216,0,0,1,25.566,0,29.58,29.58,0,0,0,24.851,0,30.247,30.247,0,0,1,25.58,0,29.6,29.6,0,0,0,24.86,0,30.206,30.206,0,0,1,25.561,0,29.622,29.622,0,0,0,24.869,0,30.186,30.186,0,0,1,25.552,0,29.911,29.911,0,0,0,12.4,2.736v18.8Zm-82.5-220V142.8H8.059Zm13.75,32.629c0,15.863,72.632,59.038,67.343,109.455H135.077ZM187.909,151.97H34.243v28.417c4.583.458,3.878.967,5.44,1.728A32.019,32.019,0,0,0,52.343,184.8a31.284,31.284,0,0,0,12.549-2.681,29.962,29.962,0,0,1,25.667,0,30.2,30.2,0,0,0,24.878,0,29.749,29.749,0,0,1,25.57,0,30.846,30.846,0,0,0,12.412,2.681,19.241,19.241,0,0,0,2.457-.3l.206.1,1.5-.252c1-.151,2-.257,3.011-.5,9.029-1.875,14.868-9.194,14.868-9.194l17.577-22.674Z" transform="translate(-2.16 -0.72)"/></svg>