<svg xmlns="http://www.w3.org/2000/svg" width="185.625" height="220" viewBox="0 0 185.625 220"><defs><style>.a{fill:#fff;}</style></defs><path class="a" d="M44.785,1.928C22,1.928,3.535,23.474,3.535,50.053c0,22.757,13.54,41.823,31.734,46.836L28.439,208.2a12.806,12.806,0,0,0,12.908,13.724h6.875A12.806,12.806,0,0,0,61.13,208.2L54.3,96.889C72.495,91.876,86.035,72.81,86.035,50.053c0-26.579-18.468-48.125-41.25-48.125Zm138.646,0-11.458,68.75h-8.594l-5.729-68.75H151.92l-5.729,68.75H137.6L126.139,1.928H120.41V91.3a6.875,6.875,0,0,0,6.875,6.875h17.9L138.439,208.2a12.806,12.806,0,0,0,12.908,13.724h6.875A12.806,12.806,0,0,0,171.131,208.2L164.38,98.178h17.9A6.875,6.875,0,0,0,189.16,91.3V1.928Z" transform="translate(-3.535 -1.928)"/></svg>