<svg xmlns="http://www.w3.org/2000/svg" width="235.714" height="150" viewBox="0 0 235.714 150"><defs><style>.a{fill:#fff;}</style></defs><path class="a" d="M162.214,71.786a32.143,32.143,0,1,0-32.143-32.143A32.009,32.009,0,0,0,162.214,71.786Zm-85.714,0A32.143,32.143,0,1,0,44.357,39.643,32.009,32.009,0,0,0,76.5,71.786Zm0,21.429c-24.964,0-75,12.536-75,37.5V157.5h150V130.714C151.5,105.75,101.464,93.214,76.5,93.214Zm85.714,0c-3.107,0-6.643.214-10.393.536,12.429,9,21.107,21.107,21.107,36.964V157.5h64.286V130.714C237.214,105.75,187.179,93.214,162.214,93.214Z" transform="translate(-1.5 -7.5)"/></svg>