<svg xmlns="http://www.w3.org/2000/svg" width="150" height="150" viewBox="0 0 150 150"><defs><style>.a{fill:#fff;}</style></defs><path class="a" d="M46.875,84.375H30.469a2.343,2.343,0,0,1-2.344-2.344V77.344A2.343,2.343,0,0,1,30.469,75H46.875V56.25H30.469a2.343,2.343,0,0,1-2.344-2.344V49.219a2.343,2.343,0,0,1,2.344-2.344H46.875V28.125H30.469a2.343,2.343,0,0,1-2.344-2.344V21.094a2.343,2.343,0,0,1,2.344-2.344H46.875V9.375A9.376,9.376,0,0,0,37.5,0H9.375A9.376,9.376,0,0,0,0,9.375v131.25a9.017,9.017,0,0,0,.46,2.285L46.875,96.5Zm93.75,18.75H131.25v16.406a2.343,2.343,0,0,1-2.344,2.344h-4.687a2.343,2.343,0,0,1-2.344-2.344V103.125h-18.75v16.406a2.343,2.343,0,0,1-2.344,2.344H96.094a2.343,2.343,0,0,1-2.344-2.344V103.125H75v16.406a2.343,2.343,0,0,1-2.344,2.344H67.969a2.343,2.343,0,0,1-2.344-2.344V103.125H53.5L7.09,149.54a9.043,9.043,0,0,0,2.285.46h131.25A9.376,9.376,0,0,0,150,140.625V112.5A9.376,9.376,0,0,0,140.625,103.125Z"/></svg>